<svg width="183" height="31" viewBox="0 0 183 31" fill="none" xmlns="http://www.w3.org/2000/svg">
<path d="M8.22656 21.5234L6.19531 23.5547V30H0.550781V0H6.19531V16.6211L7.28906 15.2148L12.6992 8.86719H19.4766L11.8398 17.6758L20.1406 30H13.6562L8.22656 21.5234ZM21.0391 19.2383C21.0391 17.1419 21.4427 15.2734 22.25 13.6328C23.0573 11.9922 24.2161 10.7227 25.7266 9.82422C27.25 8.92578 29.0143 8.47656 31.0195 8.47656C33.8711 8.47656 36.1953 9.34896 37.9922 11.0938C39.8021 12.8385 40.8112 15.2083 41.0195 18.2031L41.0586 19.6484C41.0586 22.8906 40.1536 25.4948 38.3438 27.4609C36.5339 29.4141 34.1055 30.3906 31.0586 30.3906C28.0117 30.3906 25.5768 29.4141 23.7539 27.4609C21.944 25.5078 21.0391 22.8516 21.0391 19.4922V19.2383ZM26.6836 19.6484C26.6836 21.6536 27.0612 23.1901 27.8164 24.2578C28.5716 25.3125 29.6523 25.8398 31.0586 25.8398C32.4258 25.8398 33.4935 25.319 34.2617 24.2773C35.0299 23.2227 35.4141 21.543 35.4141 19.2383C35.4141 17.2721 35.0299 15.7487 34.2617 14.668C33.4935 13.5872 32.4128 13.0469 31.0195 13.0469C29.6393 13.0469 28.5716 13.5872 27.8164 14.668C27.0612 15.7357 26.6836 17.3958 26.6836 19.6484ZM49.7305 8.86719L49.9062 11.3086C51.4167 9.42057 53.4414 8.47656 55.9805 8.47656C58.2201 8.47656 59.8867 9.13411 60.9805 10.4492C62.0742 11.7643 62.6341 13.7305 62.6602 16.3477V30H57.0156V16.4844C57.0156 15.2865 56.7552 14.4206 56.2344 13.8867C55.7135 13.3398 54.8477 13.0664 53.6367 13.0664C52.0482 13.0664 50.8568 13.7435 50.0625 15.0977V30H44.418V8.86719H49.7305ZM73.7148 3.67188V8.86719H77.3281V13.0078H73.7148V23.5547C73.7148 24.3359 73.8646 24.8958 74.1641 25.2344C74.4635 25.5729 75.0365 25.7422 75.8828 25.7422C76.5078 25.7422 77.0612 25.6966 77.543 25.6055V29.8828C76.4362 30.2214 75.2969 30.3906 74.125 30.3906C70.1667 30.3906 68.1484 28.3919 68.0703 24.3945V13.0078H64.9844V8.86719H68.0703V3.67188H73.7148ZM92.3477 14.1602C91.5794 14.056 90.9023 14.0039 90.3164 14.0039C88.181 14.0039 86.7812 14.7266 86.1172 16.1719V30H80.4727V8.86719H85.8047L85.9609 11.3867C87.0938 9.44661 88.6628 8.47656 90.668 8.47656C91.293 8.47656 91.8789 8.5612 92.4258 8.73047L92.3477 14.1602ZM101.039 30H95.375V8.86719H101.039V30ZM95.043 3.39844C95.043 2.55208 95.3229 1.85547 95.8828 1.30859C96.4557 0.761719 97.2305 0.488281 98.207 0.488281C99.1706 0.488281 99.9388 0.761719 100.512 1.30859C101.085 1.85547 101.371 2.55208 101.371 3.39844C101.371 4.25781 101.078 4.96094 100.492 5.50781C99.9193 6.05469 99.1576 6.32812 98.207 6.32812C97.2565 6.32812 96.4883 6.05469 95.9023 5.50781C95.3294 4.96094 95.043 4.25781 95.043 3.39844ZM124.75 19.6289C124.75 23.0143 124.027 25.6576 122.582 27.5586C121.137 29.4466 119.118 30.3906 116.527 30.3906C114.236 30.3906 112.406 29.5117 111.039 27.7539L110.785 30H105.707V0H111.352V10.7617C112.654 9.23828 114.366 8.47656 116.488 8.47656C119.066 8.47656 121.085 9.42708 122.543 11.3281C124.014 13.2161 124.75 15.8789 124.75 19.3164V19.6289ZM119.105 19.2188C119.105 17.0833 118.767 15.5273 118.09 14.5508C117.413 13.5612 116.404 13.0664 115.062 13.0664C113.266 13.0664 112.029 13.8021 111.352 15.2734V23.6133C112.042 25.0977 113.292 25.8398 115.102 25.8398C116.924 25.8398 118.122 24.9414 118.695 23.1445C118.969 22.2852 119.105 20.9766 119.105 19.2188ZM140.902 27.8516C139.509 29.5443 137.582 30.3906 135.121 30.3906C132.855 30.3906 131.124 29.7396 129.926 28.4375C128.741 27.1354 128.135 25.2279 128.109 22.7148V8.86719H133.754V22.5195C133.754 24.7201 134.757 25.8203 136.762 25.8203C138.676 25.8203 139.991 25.1562 140.707 23.8281V8.86719H146.371V30H141.059L140.902 27.8516ZM157.387 3.67188V8.86719H161V13.0078H157.387V23.5547C157.387 24.3359 157.536 24.8958 157.836 25.2344C158.135 25.5729 158.708 25.7422 159.555 25.7422C160.18 25.7422 160.733 25.6966 161.215 25.6055V29.8828C160.108 30.2214 158.969 30.3906 157.797 30.3906C153.839 30.3906 151.82 28.3919 151.742 24.3945V13.0078H148.656V8.86719H151.742V3.67188H157.387ZM173.871 30.3906C170.772 30.3906 168.246 29.4401 166.293 27.5391C164.353 25.638 163.383 23.1055 163.383 19.9414V19.3945C163.383 17.2721 163.793 15.3776 164.613 13.7109C165.434 12.0312 166.592 10.7422 168.09 9.84375C169.6 8.93229 171.319 8.47656 173.246 8.47656C176.137 8.47656 178.409 9.38802 180.062 11.2109C181.729 13.0339 182.562 15.6185 182.562 18.9648V21.2695H169.105C169.288 22.6497 169.835 23.7565 170.746 24.5898C171.671 25.4232 172.836 25.8398 174.242 25.8398C176.417 25.8398 178.116 25.0521 179.34 23.4766L182.113 26.582C181.267 27.7799 180.121 28.7174 178.676 29.3945C177.23 30.0586 175.629 30.3906 173.871 30.3906ZM173.227 13.0469C172.107 13.0469 171.195 13.4245 170.492 14.1797C169.802 14.9349 169.359 16.0156 169.164 17.4219H177.016V16.9727C176.99 15.7227 176.651 14.7591 176 14.082C175.349 13.3919 174.424 13.0469 173.227 13.0469Z" fill="#19A5B6"/>
</svg>
